<svg xmlns="http://www.w3.org/2000/svg" width="600" height="200" viewBox="0 0 600 200">
  <defs>
    <linearGradient id="bgGrad" x1="0%" y1="0%" x2="100%" y2="100%">
      <stop offset="0%" style="stop-color:#2d1b0e"/>
      <stop offset="100%" style="stop-color:#1a0f06"/>
    </linearGradient>
    <linearGradient id="spineRed" x1="0%" y1="0%" x2="100%" y2="0%">
      <stop offset="0%" style="stop-color:#c0392b"/>
      <stop offset="100%" style="stop-color:#e74c3c"/>
    </linearGradient>
    <linearGradient id="pageGrad" x1="0%" y1="0%" x2="100%" y2="0%">
      <stop offset="0%" style="stop-color:#f0e0c8"/>
      <stop offset="100%" style="stop-color:#fffaf5"/>
    </linearGradient>
  </defs>

  <!-- Background -->
  <rect width="600" height="200" fill="url(#bgGrad)"/>

  <!-- Subtle grain lines -->
  <line x1="0" y1="50"  x2="600" y2="50"  stroke="#3d2510" stroke-width="0.4" opacity="0.4"/>
  <line x1="0" y1="100" x2="600" y2="100" stroke="#3d2510" stroke-width="0.4" opacity="0.4"/>
  <line x1="0" y1="150" x2="600" y2="150" stroke="#3d2510" stroke-width="0.4" opacity="0.4"/>

  <!-- ── BOOKS (centered x≈175 in the visible window) ── -->

  <!-- Book 1 – red spine (tallest) -->
  <rect x="148" y="50" width="14" height="100" rx="1" fill="url(#spineRed)"/>
  <rect x="162" y="56" width="22" height="94"  rx="1" fill="url(#pageGrad)"/>
  <rect x="162" y="56" width="3"  height="94"  fill="#ddc8a8"/>
  <line x1="168" y1="70" x2="180" y2="70" stroke="#b89870" stroke-width="1"/>
  <line x1="168" y1="77" x2="180" y2="77" stroke="#b89870" stroke-width="1"/>
  <line x1="168" y1="84" x2="180" y2="84" stroke="#b89870" stroke-width="1"/>

  <!-- Book 2 – teal spine -->
  <rect x="185" y="62" width="13" height="88" rx="1" fill="#1a6b5a"/>
  <rect x="198" y="67" width="20" height="83" rx="1" fill="url(#pageGrad)"/>
  <rect x="198" y="67" width="3"  height="83" fill="#ddc8a8"/>
  <line x1="204" y1="80" x2="214" y2="80" stroke="#b89870" stroke-width="1"/>
  <line x1="204" y1="87" x2="214" y2="87" stroke="#b89870" stroke-width="1"/>

  <!-- Book 3 – olive/amber spine (shortest) -->
  <rect x="219" y="72" width="12" height="78" rx="1" fill="#8a7a20"/>
  <rect x="231" y="76" width="18" height="74" rx="1" fill="url(#pageGrad)"/>
  <rect x="231" y="76" width="3"  height="74" fill="#ddc8a8"/>
  <line x1="237" y1="90" x2="246" y2="90" stroke="#b89870" stroke-width="1"/>

  <!-- Shelf -->
  <rect x="140" y="150" width="116" height="6" rx="1" fill="#6b3d1e"/>
  <rect x="140" y="156" width="116" height="3" rx="1" fill="#8b5e3c" opacity="0.5"/>

  <!-- ── TEXT (centered at x=390, within visible x=140–460) ── -->

  <!-- Warm glow -->
  <ellipse cx="390" cy="98" rx="130" ry="42" fill="#d4520a" opacity="0.09"/>

  <!-- "Book" flush-right to center-point x=388 -->
  <text
    x="388"
    y="118"
    text-anchor="end"
    font-family="Georgia, 'Times New Roman', serif"
    font-weight="700"
    font-size="54"
    fill="#f5e6d3"
    letter-spacing="-1">Book</text>

  <!-- "Nook" flush-left from center-point x=388 -->
  <text
    x="390"
    y="118"
    text-anchor="start"
    font-family="Georgia, 'Times New Roman', serif"
    font-weight="700"
    font-size="54"
    fill="#e67e22"
    letter-spacing="-1">Nook</text>

  <!-- Tagline centered at x=390 -->
  <text
    x="390"
    y="143"
    text-anchor="middle"
    font-family="Arial, sans-serif"
    font-size="11"
    fill="#a07850"
    letter-spacing="2.5">YOUR DIGITAL BOOKSHELF</text>
</svg>
